<?xml version="1.0" encoding="utf-8"?>
<svg viewBox="-11.11 19.556 520.073 112.176" xmlns="http://www.w3.org/2000/svg">
  <g style="font-variant-ligatures:normal" transform="matrix(1, 0, 0, 1, -263.074738, -308.353821)">
    <path transform="matrix(1.9 0 0 1.9 -461.26 434.34)" d="M400.0777 2.52h12.744l-14.76-22.824 15.624-17.28h-13.824l-13.608 15.264v-33.192h-10.872V2.52h10.872V-7.704l4.32-4.68z" fill="#fff" style="font-variant-ligatures:normal"/>
    <path transform="matrix(1.9 0 0 1.9 -461.26 434.34)" d="M443.6073-31.608c-3.456-3.384-7.992-5.256-12.816-5.256-2.592 0-5.04.504-7.272 1.512v-2.664h-10.8v17.64c-.072.576-.072 1.08-.072 1.656h.072V2.52h10.8V-19.8c.504-3.528 3.528-6.264 7.272-6.264 4.032 0 7.344 3.312 7.344 7.344V2.52h10.8v-21.24c0-4.896-1.944-9.432-5.328-12.888z" fill="#fff" style="font-variant-ligatures:normal"/>
    <path transform="matrix(1.9 0 0 1.9 -461.26 434.34)" d="m469.11 2.952c7.272 0 13.176-5.904 13.176-13.176s-5.904-13.176-13.176-13.176h-3.024c-1.08 0-1.872-0.864-1.872-1.872 0-1.08 0.792-1.944 1.872-1.944h15.048v-11.304h-15.048c-7.272 0-13.176 5.976-13.176 13.248s5.904 13.176 13.176 13.176h3.024c1.008 0 1.872 0.864 1.872 1.872 0 1.08-0.864 1.872-1.872 1.872h-16.848v11.304zm34.884 0.072c2.736 0 5.472-0.576 7.992-1.584 2.448-1.08 4.68-2.52 6.552-4.392 1.872-1.944 3.312-4.104 4.392-6.552 1.08-2.52 1.584-5.256 1.584-7.992 0-2.808-0.504-5.472-1.584-7.992-1.08-2.448-2.52-4.68-4.392-6.552-1.944-1.872-4.104-3.312-6.552-4.392-2.52-1.08-5.256-1.584-7.992-1.584s-5.472 0.504-7.992 1.584c-2.448 1.08-4.608 2.52-6.552 4.392-1.872 1.944-3.312 4.104-4.392 6.552-1.008 2.52-1.584 5.184-1.584 7.992 0 2.736 0.576 5.472 1.584 7.992 1.08 2.448 2.52 4.608 4.392 6.552 1.944 1.872 4.104 3.312 6.552 4.392 2.52 1.008 5.256 1.584 7.992 1.584zm0-30.24c5.328 0 9.72 4.392 9.72 9.72s-4.392 9.72-9.72 9.72-9.72-4.392-9.72-9.72 4.392-9.72 9.72-9.72zm41.454 30.24c4.824 0 9.36-1.872 12.744-5.256s5.256-7.92 5.256-12.744v-22.608h-10.8v22.608c0 3.96-3.24 7.2-7.2 7.2s-7.2-3.24-7.2-7.2v-22.608h-10.8v22.608c0 4.824 1.872 9.36 5.256 12.744s7.92 5.256 12.744 5.256zm54.396-34.632c-3.456-3.384-7.992-5.256-12.816-5.256-2.592 0-5.04 0.504-7.272 1.512v-2.664h-10.8v17.64c-0.072 0.576-0.072 1.08-0.072 1.656h0.072v21.24h10.8v-22.32c0.504-3.528 3.528-6.264 7.272-6.264 4.032 0 7.344 3.312 7.344 7.344v21.24h10.8v-21.24c0-4.896-1.944-9.432-5.328-12.888zm9.8043 22.104c1.08 2.448 2.52 4.68 4.392 6.552 1.944 1.872 4.104 3.384 6.552 4.392 2.52 1.08 5.256 1.584 7.992 1.584s5.472-0.504 7.992-1.584c2.448-1.008 4.608-2.52 6.552-4.392 1.872-1.872 3.312-4.104 4.392-6.552 1.08-2.52 1.584-5.184 1.584-7.992v-34.92l-10.8-3.6v20.448c-0.576-0.288-1.152-0.576-1.728-0.792-2.52-1.08-5.184-1.584-7.992-1.584-2.736 0-5.472 0.504-7.992 1.584-2.448 1.008-4.608 2.52-6.552 4.392-1.872 1.872-3.312 4.104-4.392 6.552-1.008 2.52-1.584 5.184-1.584 7.92 0 2.808 0.576 5.472 1.584 7.992zm18.936-17.712c5.328 0 9.72 4.392 9.72 9.72 0 5.4-4.392 9.72-9.72 9.72s-9.72-4.32-9.72-9.72c0-5.328 4.392-9.72 9.72-9.72z" fill="#464648" style="font-variant-ligatures:normal"/>
  </g>
</svg>